<svg height="56" viewBox="0 0 360 56" fill="none" xmlns="http://www.w3.org/2000/svg">
<path d="M351.313 0H238.013C234.345 0.00351255 230.776 1.19426 227.84 3.3942C224.905 5.59414 222.76 8.68511 221.727 12.205C219.091 21.1102 213.646 28.9243 206.205 34.4819C198.764 40.0394 189.726 43.0424 180.439 43.043C171.152 43.0427 162.113 40.0397 154.672 34.4822C147.231 28.9246 141.786 21.1103 139.15 12.205C138.117 8.6852 135.972 5.59433 133.036 3.39441C130.101 1.19449 126.532 0.00367399 122.864 0H8.69995C6.39257 0 4.17966 0.916621 2.5481 2.54819C0.916529 4.17975 0 6.39263 0 8.70001V55.656H360V8.70001C360 6.39488 359.085 4.18396 357.456 2.55276C355.828 0.921572 353.618 0.00344445 351.313 0Z" fill="white"/>
</svg>
